/* XPM */
static char *_bcd8267b18f4a539b3547e3d5ebed9eyA3Kdsb613ANee5x[] = {
/* columns rows colors chars-per-pixel */
"50 50 25 1 ",
"  c black",
". c #542A07",
"X c #4B5407",
"o c #436B34",
"O c #4D0D7B",
"+ c #BA2929",
"@ c #B25B06",
"# c #9E4549",
"$ c #2CA500",
"% c #519E45",
"& c #9E801A",
"* c #BE8D3D",
"= c #4906B2",
"- c #6943A3",
"; c #4374A3",
": c #073BD7",
"> c #8F06B2",
", c #459E99",
"< c #768CD1",
"1 c #BD8282",
"2 c #C4B994",
"3 c #A1C494",
"4 c #FAEBB7",
"5 c #F1C7FB",
"6 c white",
/* pixels */
"          ++++++++++**********..........##########",
"          ++++++++++**********..........##########",
"          ++++++++++**********..........##########",
"          ++++++++++**********..........##########",
"          ++++++++++**********..........##########",
"          ++++++++++**********..........##########",
"          ++++++++++**********..........##########",
"          ++++++++++**********..........##########",
"          ++++++++++**********..........##########",
"          ++++++++++**********..........##########",
"&&&&&&&&&&2222222222::::::::::<<<<<<<<<<%%%%%%%%%%",
"&&&&&&&&&&2222222222::::::::::<<<<<<<<<<%%%%%%%%%%",
"&&&&&&&&&&2222222222::::::::::<<<<<<<<<<%%%%%%%%%%",
"&&&&&&&&&&2222222222::::::::::<<<<<<<<<<%%%%%%%%%%",
"&&&&&&&&&&2222222222::::::::::<<<<<<<<<<%%%%%%%%%%",
"&&&&&&&&&&2222222222::::::::::<<<<<<<<<<%%%%%%%%%%",
"&&&&&&&&&&2222222222::::::::::<<<<<<<<<<%%%%%%%%%%",
"&&&&&&&&&&2222222222::::::::::<<<<<<<<<<%%%%%%%%%%",
"&&&&&&&&&&2222222222::::::::::<<<<<<<<<<%%%%%%%%%%",
"&&&&&&&&&&2222222222::::::::::<<<<<<<<<<%%%%%%%%%%",
"444444444411111111113333333333OOOOOOOOOO5555555555",
"444444444411111111113333333333OOOOOOOOOO5555555555",
"444444444411111111113333333333OOOOOOOOOO5555555555",
"444444444411111111113333333333OOOOOOOOOO5555555555",
"444444444411111111113333333333OOOOOOOOOO5555555555",
"444444444411111111113333333333OOOOOOOOOO5555555555",
"444444444411111111113333333333OOOOOOOOOO5555555555",
"444444444411111111113333333333OOOOOOOOOO5555555555",
"444444444411111111113333333333OOOOOOOOOO5555555555",
"444444444411111111113333333333OOOOOOOOOO5555555555",
"@@@@@@@@@@ooooooooooXXXXXXXXXX,,,,,,,,,,;;;;;;;;;;",
"@@@@@@@@@@ooooooooooXXXXXXXXXX,,,,,,,,,,;;;;;;;;;;",
"@@@@@@@@@@ooooooooooXXXXXXXXXX,,,,,,,,,,;;;;;;;;;;",
"@@@@@@@@@@ooooooooooXXXXXXXXXX,,,,,,,,,,;;;;;;;;;;",
"@@@@@@@@@@ooooooooooXXXXXXXXXX,,,,,,,,,,;;;;;;;;;;",
"@@@@@@@@@@ooooooooooXXXXXXXXXX,,,,,,,,,,;;;;;;;;;;",
"@@@@@@@@@@ooooooooooXXXXXXXXXX,,,,,,,,,,;;;;;;;;;;",
"@@@@@@@@@@ooooooooooXXXXXXXXXX,,,,,,,,,,;;;;;;;;;;",
"@@@@@@@@@@ooooooooooXXXXXXXXXX,,,,,,,,,,;;;;;;;;;;",
"@@@@@@@@@@ooooooooooXXXXXXXXXX,,,,,,,,,,;;;;;;;;;;",
"6666666666$$$$$$$$$$>>>>>>>>>>==========----------",
"6666666666$$$$$$$$$$>>>>>>>>>>==========----------",
"6666666666$$$$$$$$$$>>>>>>>>>>==========----------",
"6666666666$$$$$$$$$$>>>>>>>>>>==========----------",
"6666666666$$$$$$$$$$>>>>>>>>>>==========----------",
"6666666666$$$$$$$$$$>>>>>>>>>>==========----------",
"6666666666$$$$$$$$$$>>>>>>>>>>==========----------",
"6666666666$$$$$$$$$$>>>>>>>>>>==========----------",
"6666666666$$$$$$$$$$>>>>>>>>>>==========----------",
"6666666666$$$$$$$$$$>>>>>>>>>>==========----------"
};
